<?xml version="1.0" encoding="UTF-8" standalone="no"?>
<svg width="512" height="512" viewBox="0 0 512 512" xmlns="http://www.w3.org/2000/svg">
  <defs>
    <linearGradient id="grad1" x1="0%" y1="0%" x2="100%" y2="100%">
      <stop offset="0%" style="stop-color:#f7931a;stop-opacity:1" />
      <stop offset="100%" style="stop-color:#ff9500;stop-opacity:1" />
    </linearGradient>
    <linearGradient id="grad2" x1="0%" y1="0%" x2="100%" y2="100%">
      <stop offset="0%" style="stop-color:#6edcfc;stop-opacity:1" />
      <stop offset="100%" style="stop-color:#337ab7;stop-opacity:1" />
    </linearGradient>
    <linearGradient id="grad3" x1="0%" y1="0%" x2="100%" y2="100%">
      <stop offset="0%" style="stop-color:#62ca5b;stop-opacity:1" />
      <stop offset="100%" style="stop-color:#2dbb69;stop-opacity:1" />
    </linearGradient>
    <linearGradient id="grad4" x1="0%" y1="0%" x2="100%" y2="100%">
      <stop offset="0%" style="stop-color:#ff5c5c;stop-opacity:1" />
      <stop offset="100%" style="stop-color:#e74c3c;stop-opacity:1" />
    </linearGradient>
  </defs>
  
  <!-- Background Circle -->
  <circle cx="256" cy="256" r="240" fill="#2c3e50" />
  
  <!-- Graph Lines -->
  <path d="M 80,380 L 120,320 L 160,350 L 200,290 L 240,270 L 280,230 L 320,180 L 360,210 L 400,170 L 440,120" stroke="#ffffff" stroke-width="4" fill="none" />
  
  <!-- Candlestick Chart -->
  <rect x="100" y="300" width="20" height="60" fill="url(#grad3)" />
  <rect x="100" y="280" width="20" height="20" fill="none" stroke="url(#grad3)" stroke-width="4" />
  <rect x="100" y="360" width="20" height="20" fill="none" stroke="url(#grad3)" stroke-width="4" />
  
  <rect x="180" y="280" width="20" height="50" fill="url(#grad3)" />
  <rect x="180" y="260" width="20" height="20" fill="none" stroke="url(#grad3)" stroke-width="4" />
  <rect x="180" y="330" width="20" height="20" fill="none" stroke="url(#grad3)" stroke-width="4" />
  
  <rect x="260" y="220" width="20" height="60" fill="url(#grad4)" />
  <rect x="260" y="200" width="20" height="20" fill="none" stroke="url(#grad4)" stroke-width="4" />
  <rect x="260" y="280" width="20" height="20" fill="none" stroke="url(#grad4)" stroke-width="4" />
  
  <rect x="340" y="190" width="20" height="50" fill="url(#grad4)" />
  <rect x="340" y="170" width="20" height="20" fill="none" stroke="url(#grad4)" stroke-width="4" />
  <rect x="340" y="240" width="20" height="20" fill="none" stroke="url(#grad4)" stroke-width="4" />
  
  <!-- Bitcoin Symbol -->
  <circle cx="180" cy="150" r="40" fill="url(#grad1)" />
  <path d="M180,120 v60 M160,130 h40 M165,140 h30 M165,160 h30" stroke="#ffffff" stroke-width="6" stroke-linecap="round" />
  
  <!-- Ethereum Symbol -->
  <polygon points="320,110 350,150 320,190 290,150" fill="url(#grad2)" />
  <path d="M320,110 L320,190 M290,150 L350,150" stroke="#ffffff" stroke-width="4" />
  
  <!-- Border -->
  <circle cx="256" cy="256" r="240" fill="none" stroke="#ffffff" stroke-width="8" />
</svg>