<?xml version="1.0" encoding="UTF-8" standalone="no"?>
<svg width="256" height="256" viewBox="0 0 256 256" version="1.1" xmlns="http://www.w3.org/2000/svg">
  <circle cx="128" cy="128" r="120" fill="#f7931a" />
  <g transform="scale(0.85) translate(20, 20)">
    <path d="M136.4 96.3c2.5-15.1-9.3-23.3-25-28.7l5-20.4-12.4-3-5 19.9c-3.3-.8-6.6-1.6-9.9-2.3l5-20.1-12.3-3-5.1 20.5c-2.7-.6-5.4-1.2-8-1.8l0 0-17-4.2-3.3 13.3s9.3 2.1 9.1 2.2c5.1 1.3 6 4.6 5.8 7.2L58 107.8c.4.1.8.2 1.3.4-.4-.1-.8-.2-1.3-.4l-8.1 32.5c-.6 1.5-2.2 3.8-5.7 2.9.1.2-9.1-2.3-9.1-2.3l-6.2 14.4 16.1 4c3 .8 5.9 1.5 8.8 2.3l-5.1 20.6 12.3 3 5.1-20.5c3.4.9 6.7 1.8 9.9 2.6l-5.1 20.3 12.4 3 5.1-20.5c21.3 4 37.3 2.4 44-16.9 5.4-15.5-0.3-24.4-11.3-30.2 8.1-1.9 14.1-7.2 15.7-18.1zm-28 39.2c-3.8 15.5-29.8 7.1-38.1 5l6.8-27.1c8.4 2.1 35.1 6.2 31.3 22.1zm3.8-40.1c-3.5 14.1-25.3 6.9-32.3 5.2l6.2-24.7c7 1.7 29.5 5 26.1 19.5z" fill="white" />
  </g>
</svg>