<?xml version="1.0" encoding="UTF-8" standalone="no"?>
<svg width="300" height="300" viewBox="0 0 300 300" fill="none" xmlns="http://www.w3.org/2000/svg">
  <circle cx="150" cy="150" r="120" fill="#1A1A1A"/>
  <path d="M150 40C89.2487 40 40 89.2487 40 150C40 210.751 89.2487 260 150 260C210.751 260 260 210.751 260 150C260 89.2487 210.751 40 150 40Z" stroke="#F3BA2F" stroke-width="12"/>
  <path d="M150 75L183.064 108.064L150 141.127L116.936 108.064L150 75Z" fill="#F3BA2F"/>
  <path d="M150 158.873L183.064 191.936L150 225L116.936 191.936L150 158.873Z" fill="#F3BA2F"/>
  <path d="M183.064 108.064L216.127 141.127L183.064 174.191L150 141.127L183.064 108.064Z" fill="#F3BA2F"/>
  <path d="M116.936 108.064L150 141.127L116.936 174.191L83.873 141.127L116.936 108.064Z" fill="#F3BA2F"/>
</svg>